<mxfile host="Electron" agent="Mozilla/5.0 (Windows NT 10.0; Win64; x64) AppleWebKit/537.36 (KHTML, like Gecko) draw.io/27.0.9 Chrome/134.0.6998.205 Electron/35.4.0 Safari/537.36" version="27.0.9">
  <diagram name="Seite-1" id="UJAdIgFpuGe5dQMUcJeS">
    <mxGraphModel dx="1097" dy="647" grid="1" gridSize="1" guides="1" tooltips="1" connect="1" arrows="1" fold="1" page="1" pageScale="1" pageWidth="827" pageHeight="1169" math="0" shadow="0">
      <root>
        <mxCell id="0" />
        <mxCell id="1" parent="0" />
        <mxCell id="BrwgiNuvzXtm9svVIr5A-19" value="&lt;font face=&quot;Times New Roman&quot; style=&quot;font-size: 13px; color: rgb(77, 77, 77);&quot;&gt;Dokumentation&lt;/font&gt;" style="rounded=1;whiteSpace=wrap;html=1;strokeColor=#666666;strokeWidth=2;" parent="1" vertex="1">
          <mxGeometry x="465" y="206" width="120" height="24" as="geometry" />
        </mxCell>
        <mxCell id="BrwgiNuvzXtm9svVIr5A-20" value="&lt;font style=&quot;color: rgb(77, 77, 77); font-size: 14px;&quot;&gt;...&lt;/font&gt;" style="rounded=1;whiteSpace=wrap;html=1;strokeColor=#666666;strokeWidth=2;" parent="1" vertex="1">
          <mxGeometry x="465" y="239" width="120" height="24" as="geometry" />
        </mxCell>
        <mxCell id="BrwgiNuvzXtm9svVIr5A-21" value="&lt;font face=&quot;Times New Roman&quot; style=&quot;color: rgb(77, 77, 77); font-size: 14px;&quot;&gt;Typenschild&lt;/font&gt;" style="rounded=1;whiteSpace=wrap;html=1;strokeColor=#666666;strokeWidth=2;" parent="1" vertex="1">
          <mxGeometry x="465" y="173" width="120" height="24" as="geometry" />
        </mxCell>
        <mxCell id="BrwgiNuvzXtm9svVIr5A-22" value="&lt;font face=&quot;Times New Roman&quot; style=&quot;color: rgb(77, 77, 77); font-size: 14px;&quot;&gt;Prozessdaten&lt;/font&gt;" style="rounded=1;whiteSpace=wrap;html=1;strokeColor=#666666;strokeWidth=2;" parent="1" vertex="1">
          <mxGeometry x="465" y="274" width="120" height="24" as="geometry" />
        </mxCell>
        <mxCell id="BrwgiNuvzXtm9svVIr5A-28" value="&lt;font face=&quot;Times New Roman&quot; style=&quot;font-size: 16px;&quot;&gt;&lt;b style=&quot;&quot;&gt;Datengenerator&lt;/b&gt;&lt;br&gt;(Prozess- &amp;amp; Betriebsdaten)&lt;/font&gt;" style="rounded=1;whiteSpace=wrap;html=1;fillColor=#ffe6cc;strokeColor=#d79b00;strokeWidth=2;" parent="1" vertex="1">
          <mxGeometry x="103" y="450.90999999999997" width="174" height="60" as="geometry" />
        </mxCell>
        <mxCell id="BrwgiNuvzXtm9svVIr5A-29" value="&lt;font face=&quot;Times New Roman&quot; style=&quot;font-size: 16px;&quot;&gt;&lt;b style=&quot;&quot;&gt;Maschinensimulator&lt;/b&gt;&lt;br&gt;(PackML)&lt;/font&gt;" style="rounded=1;whiteSpace=wrap;html=1;fillColor=#ffe6cc;strokeColor=#d79b00;strokeWidth=2;" parent="1" vertex="1">
          <mxGeometry x="103" y="361.09" width="174" height="60" as="geometry" />
        </mxCell>
        <mxCell id="BrwgiNuvzXtm9svVIr5A-34" value="&lt;font face=&quot;Times New Roman&quot; style=&quot;font-size: 16px;&quot;&gt;&lt;b style=&quot;&quot;&gt;Unternehmenssysteme&lt;/b&gt;&lt;br&gt;(Agile / PSI Penta)&lt;/font&gt;" style="rounded=1;whiteSpace=wrap;html=1;fillColor=#d5e8d4;strokeColor=#82b366;strokeWidth=2;" parent="1" vertex="1">
          <mxGeometry x="98" y="188" width="184" height="60" as="geometry" />
        </mxCell>
        <mxCell id="BrwgiNuvzXtm9svVIr5A-46" value="&lt;font face=&quot;Times New Roman&quot; style=&quot;font-size: 16px;&quot;&gt;OPC UA&lt;/font&gt;&lt;div&gt;&lt;font face=&quot;Times New Roman&quot; style=&quot;font-size: 16px;&quot;&gt;Server&lt;/font&gt;&lt;/div&gt;" style="rounded=1;whiteSpace=wrap;html=1;dashed=1;fillColor=#ffe6cc;strokeColor=#d79b00;strokeWidth=2;" parent="1" vertex="1">
          <mxGeometry x="324" y="406" width="120" height="60" as="geometry" />
        </mxCell>
        <mxCell id="iY58d5cHtixlk7exrqO8-7" value="" style="shape=curlyBracket;whiteSpace=wrap;html=1;rounded=1;labelPosition=left;verticalLabelPosition=middle;align=right;verticalAlign=middle;fillColor=#f5f5f5;strokeColor=#666666;fontColor=#333333;strokeWidth=2;" parent="1" vertex="1">
          <mxGeometry x="441" y="173" width="20" height="90" as="geometry" />
        </mxCell>
        <mxCell id="iY58d5cHtixlk7exrqO8-8" value="" style="shape=curlyBracket;whiteSpace=wrap;html=1;rounded=1;labelPosition=left;verticalLabelPosition=middle;align=right;verticalAlign=middle;strokeWidth=2;strokeColor=#666666;" parent="1" vertex="1">
          <mxGeometry x="441" y="274" width="20" height="90" as="geometry" />
        </mxCell>
        <mxCell id="iY58d5cHtixlk7exrqO8-10" value="" style="endArrow=none;html=1;rounded=0;entryX=0.1;entryY=0.5;entryDx=0;entryDy=0;entryPerimeter=0;exitX=1;exitY=0.5;exitDx=0;exitDy=0;fillColor=#f5f5f5;strokeColor=#666666;strokeWidth=2;startArrow=none;startFill=0;" parent="1" source="BrwgiNuvzXtm9svVIr5A-34" target="iY58d5cHtixlk7exrqO8-7" edge="1">
          <mxGeometry width="50" height="50" relative="1" as="geometry">
            <mxPoint x="313" y="198" as="sourcePoint" />
            <mxPoint x="413" y="166" as="targetPoint" />
          </mxGeometry>
        </mxCell>
        <mxCell id="iY58d5cHtixlk7exrqO8-11" value="" style="curved=1;endArrow=none;html=1;rounded=0;exitX=0.5;exitY=0;exitDx=0;exitDy=0;entryX=0.1;entryY=0.5;entryDx=0;entryDy=0;entryPerimeter=0;endFill=0;strokeWidth=2;strokeColor=#666666;" parent="1" source="BrwgiNuvzXtm9svVIr5A-46" target="iY58d5cHtixlk7exrqO8-8" edge="1">
          <mxGeometry width="50" height="50" relative="1" as="geometry">
            <mxPoint x="348" y="350" as="sourcePoint" />
            <mxPoint x="398" y="300" as="targetPoint" />
            <Array as="points">
              <mxPoint x="348" y="300" />
            </Array>
          </mxGeometry>
        </mxCell>
        <mxCell id="iY58d5cHtixlk7exrqO8-13" value="" style="endArrow=classic;html=1;rounded=0;exitX=1;exitY=0.5;exitDx=0;exitDy=0;entryX=0;entryY=0.5;entryDx=0;entryDy=0;strokeWidth=2;fillColor=#ffe6cc;strokeColor=#d79b00;" parent="1" source="BrwgiNuvzXtm9svVIr5A-29" target="BrwgiNuvzXtm9svVIr5A-46" edge="1">
          <mxGeometry width="50" height="50" relative="1" as="geometry">
            <mxPoint x="288" y="402" as="sourcePoint" />
            <mxPoint x="366" y="345" as="targetPoint" />
          </mxGeometry>
        </mxCell>
        <mxCell id="iY58d5cHtixlk7exrqO8-14" value="" style="endArrow=classic;html=1;rounded=0;exitX=1;exitY=0.5;exitDx=0;exitDy=0;entryX=0;entryY=0.5;entryDx=0;entryDy=0;strokeWidth=2;fillColor=#ffe6cc;strokeColor=#d79b00;" parent="1" source="BrwgiNuvzXtm9svVIr5A-28" target="BrwgiNuvzXtm9svVIr5A-46" edge="1">
          <mxGeometry width="50" height="50" relative="1" as="geometry">
            <mxPoint x="375" y="576" as="sourcePoint" />
            <mxPoint x="425" y="526" as="targetPoint" />
          </mxGeometry>
        </mxCell>
        <mxCell id="iY58d5cHtixlk7exrqO8-17" value="&lt;font style=&quot;font-size: 14px;&quot; face=&quot;Times New Roman&quot; color=&quot;#4d4d4d&quot;&gt;Zeitreihendaten&lt;/font&gt;" style="rounded=1;whiteSpace=wrap;html=1;strokeColor=#666666;strokeWidth=2;" parent="1" vertex="1">
          <mxGeometry x="465" y="307" width="120" height="24" as="geometry" />
        </mxCell>
        <mxCell id="iY58d5cHtixlk7exrqO8-20" value="&lt;font face=&quot;Times New Roman&quot; style=&quot;color: rgb(77, 77, 77); font-size: 14px;&quot;&gt;Kontrollkomponente&lt;/font&gt;" style="rounded=1;whiteSpace=wrap;html=1;strokeColor=#666666;strokeWidth=2;" parent="1" vertex="1">
          <mxGeometry x="465" y="340" width="120" height="24" as="geometry" />
        </mxCell>
        <mxCell id="iY58d5cHtixlk7exrqO8-48" value="" style="endArrow=classic;html=1;rounded=0;strokeColor=#666666;" parent="1" edge="1">
          <mxGeometry width="50" height="50" relative="1" as="geometry">
            <mxPoint x="336" y="217.86999999999998" as="sourcePoint" />
            <mxPoint x="368" y="217.86999999999998" as="targetPoint" />
          </mxGeometry>
        </mxCell>
        <mxCell id="iY58d5cHtixlk7exrqO8-49" value="" style="endArrow=classic;html=1;rounded=0;strokeColor=#666666;" parent="1" edge="1">
          <mxGeometry width="50" height="50" relative="1" as="geometry">
            <mxPoint x="374" y="354" as="sourcePoint" />
            <mxPoint x="375" y="346" as="targetPoint" />
          </mxGeometry>
        </mxCell>
        <mxCell id="2E_GQxaa4JmlzqFTOjea-1" value="" style="group" parent="1" vertex="1" connectable="0">
          <mxGeometry x="607" y="174" width="320" height="191" as="geometry" />
        </mxCell>
        <mxCell id="BrwgiNuvzXtm9svVIr5A-1" value="" style="shape=loopLimit;whiteSpace=wrap;html=1;size=60;fillColor=#e3edf8;strokeColor=#D4E1F5;strokeWidth=2;" parent="2E_GQxaa4JmlzqFTOjea-1" vertex="1">
          <mxGeometry width="320.00000000000017" height="189.9147727272727" as="geometry" />
        </mxCell>
        <mxCell id="BrwgiNuvzXtm9svVIr5A-2" value="&lt;font face=&quot;Times New Roman&quot; style=&quot;font-size: 20px;&quot;&gt;Haupt-AAS&lt;/font&gt;" style="text;html=1;align=center;verticalAlign=middle;whiteSpace=wrap;rounded=0;" parent="2E_GQxaa4JmlzqFTOjea-1" vertex="1">
          <mxGeometry x="68.25000000000004" y="11.9375" width="183.50000000000009" height="32.55681818181818" as="geometry" />
        </mxCell>
        <mxCell id="BrwgiNuvzXtm9svVIr5A-3" value="" style="shape=loopLimit;whiteSpace=wrap;html=1;size=30;strokeColor=#D4E1F5;strokeWidth=2;" parent="2E_GQxaa4JmlzqFTOjea-1" vertex="1">
          <mxGeometry x="59.44640535017649" y="59.692988505747124" width="199.739921976593" height="130.2312643678161" as="geometry" />
        </mxCell>
        <mxCell id="BrwgiNuvzXtm9svVIr5A-4" value="" style="shape=ext;double=1;rounded=0;whiteSpace=wrap;html=1;strokeColor=none;" parent="2E_GQxaa4JmlzqFTOjea-1" vertex="1">
          <mxGeometry x="60.63533345718002" y="148.6726436781609" width="197.36206576258596" height="42.32735632183908" as="geometry" />
        </mxCell>
        <mxCell id="BrwgiNuvzXtm9svVIr5A-5" value="&lt;font style=&quot;font-size: 18px;&quot;&gt;&lt;b style=&quot;&quot;&gt;&lt;font face=&quot;Times New Roman&quot; style=&quot;&quot;&gt;robocell&lt;/font&gt;&lt;span style=&quot;font-family: &amp;quot;Times New Roman&amp;quot;; background-color: transparent; color: light-dark(rgb(0, 0, 0), rgb(255, 255, 255));&quot;&gt;&amp;nbsp;&lt;/span&gt;&lt;/b&gt;&lt;/font&gt;&lt;div&gt;&lt;font style=&quot;font-size: 18px;&quot; face=&quot;Times New Roman&quot;&gt;Abfüll- und&lt;br&gt;Verschließmodul&lt;/font&gt;&lt;/div&gt;" style="shape=loopLimit;whiteSpace=wrap;html=1;size=22;fillColor=#99CCFF;strokeColor=#99CCFF;strokeWidth=2;" parent="2E_GQxaa4JmlzqFTOjea-1" vertex="1">
          <mxGeometry x="89.16960802526474" y="90.07735632183908" width="143.8603009474271" height="99.83591954022988" as="geometry" />
        </mxCell>
        <mxCell id="iY58d5cHtixlk7exrqO8-2" value="" style="shape=loopLimit;whiteSpace=wrap;html=1;size=45;fillColor=#E3EDF8;strokeColor=#D4E1F5;strokeWidth=2;container=0;" parent="1" vertex="1">
          <mxGeometry x="774.9968198901418" y="395" width="191.0031801098584" height="115.82395542732773" as="geometry" />
        </mxCell>
        <mxCell id="iY58d5cHtixlk7exrqO8-3" value="&lt;font face=&quot;Times New Roman&quot; style=&quot;font-size: 16px;&quot;&gt;Komponenten-AAS&lt;/font&gt;" style="text;html=1;align=center;verticalAlign=middle;whiteSpace=wrap;rounded=0;container=0;" parent="1" vertex="1">
          <mxGeometry x="815.7342168979475" y="402.2803629125749" width="109.52838609424691" height="19.855535216113324" as="geometry" />
        </mxCell>
        <mxCell id="iY58d5cHtixlk7exrqO8-4" value="" style="shape=loopLimit;whiteSpace=wrap;html=1;size=30;strokeColor=#D4E1F5;strokeWidth=2;container=0;" parent="1" vertex="1">
          <mxGeometry x="810.1123518357907" y="431.4020967741936" width="121.05617591789537" height="79.41846774193549" as="geometry" />
        </mxCell>
        <mxCell id="iY58d5cHtixlk7exrqO8-5" value="" style="shape=ext;double=1;rounded=0;whiteSpace=wrap;html=1;strokeColor=none;container=0;" parent="1" vertex="1">
          <mxGeometry x="811.0364447817288" y="489.13782258064515" width="119.2079900260191" height="22.86217741935484" as="geometry" />
        </mxCell>
        <mxCell id="iY58d5cHtixlk7exrqO8-6" value="&lt;font style=&quot;font-size: 15px;&quot; face=&quot;Times New Roman&quot;&gt;Verschließ-&lt;/font&gt;&lt;div&gt;&lt;font style=&quot;font-size: 15px;&quot; face=&quot;Times New Roman&quot;&gt;maschine&lt;/font&gt;&lt;/div&gt;" style="shape=loopLimit;whiteSpace=wrap;html=1;size=22;fillColor=light-dark(#BFDBF8,#1E4A76);strokeColor=#BFDBF8;strokeWidth=2;container=0;" parent="1" vertex="1">
          <mxGeometry x="832.2977739230993" y="449.93364743124687" width="76.40127204394334" height="60.89030799608086" as="geometry" />
        </mxCell>
        <mxCell id="iY58d5cHtixlk7exrqO8-38" value="" style="shape=loopLimit;whiteSpace=wrap;html=1;size=45;fillColor=#E3EDF8;strokeColor=#D4E1F5;strokeWidth=2;container=0;" parent="1" vertex="1">
          <mxGeometry x="568" y="395" width="191.0031801098584" height="115.82395542732773" as="geometry" />
        </mxCell>
        <mxCell id="iY58d5cHtixlk7exrqO8-39" value="&lt;font face=&quot;Times New Roman&quot; style=&quot;font-size: 16px;&quot;&gt;Komponenten-AAS&lt;/font&gt;" style="text;html=1;align=center;verticalAlign=middle;whiteSpace=wrap;rounded=0;container=0;" parent="1" vertex="1">
          <mxGeometry x="608.7373970078058" y="402.2803629125749" width="109.52838609424691" height="19.855535216113324" as="geometry" />
        </mxCell>
        <mxCell id="iY58d5cHtixlk7exrqO8-40" value="" style="shape=loopLimit;whiteSpace=wrap;html=1;size=30;strokeColor=#D4E1F5;strokeWidth=2;container=0;" parent="1" vertex="1">
          <mxGeometry x="603.1155319456491" y="431.4020967741936" width="121.05617591789537" height="79.41846774193549" as="geometry" />
        </mxCell>
        <mxCell id="iY58d5cHtixlk7exrqO8-41" value="" style="shape=ext;double=1;rounded=0;whiteSpace=wrap;html=1;strokeColor=none;container=0;" parent="1" vertex="1">
          <mxGeometry x="604.0396248915872" y="489.13782258064515" width="119.2079900260191" height="22.86217741935484" as="geometry" />
        </mxCell>
        <mxCell id="iY58d5cHtixlk7exrqO8-42" value="&lt;font style=&quot;font-size: 15px;&quot; face=&quot;Times New Roman&quot;&gt;Füll-maschine&lt;/font&gt;" style="shape=loopLimit;whiteSpace=wrap;html=1;size=22;fillColor=#BFDBF8;strokeColor=#BFDBF8;strokeWidth=2;container=0;" parent="1" vertex="1">
          <mxGeometry x="625.3009540329575" y="449.9336474312468" width="76.40127204394334" height="60.89030799608086" as="geometry" />
        </mxCell>
      </root>
    </mxGraphModel>
  </diagram>
</mxfile>
